# xmcd
#
# Track frame offsets:
#	150
#	11968
#	25632
#	42454
#	57775
#	76620
#	92976
#	101989
#	120865
#	135987
#	144150
#	156643
#	173521
#	182944
#	197344
#	235344
#
# Disc length: 3278
#
# Revision: 1
# Processed by: cddbd v1.5.1PL0 Copyright (c) Steve Scherf et al.
# Submitted via: dBpowerAMP V4.0
# Normalized: r0:TRMNUM
#
DISCID=c80ccc10
DTITLE=Desakordes - Militante
DYEAR=2004
DGENRE=Acoustic
TTITLE0=Militante
TTITLE1=¡Qué suerte tengo!
TTITLE2=Que ya lo decía mi abuela
TTITLE3=La emperaora de la calle de Alcalá
TTITLE4=C.P.A.
TTITLE5=Desayunando macarrones
TTITLE6=Tonto del culo
TTITLE7=La cántiga del monje amanuense y el marqués de la bellotas
TTITLE8=Pienso dejar de fumar
TTITLE9=Hogar
TTITLE10=Terapia
TTITLE11=Al amigo ese
TTITLE12=Canción al revés
TTITLE13=La historia del casamiento de la dulce pastorcilla y el comerciante italiano
TTITLE14=El romance anónimo del hombre polla
TTITLE15=Desakordes
EXTD=
EXTT0=
EXTT1=
EXTT2=
EXTT3=
EXTT4=
EXTT5=
EXTT6=
EXTT7=
EXTT8=
EXTT9=
EXTT10=
EXTT11=
EXTT12=
EXTT13=
EXTT14=
EXTT15=
PLAYORDER=
